<svg width="29" height="28" viewBox="0 0 29 28" fill="none" xmlns="http://www.w3.org/2000/svg">
<path d="M20.2612 13.3942C20.6824 13.0371 20.7344 12.4061 20.3773 11.9848C20.0201 11.5635 19.3891 11.5116 18.9678 11.8687L20.2612 13.3942ZM15.0392 16.5105L14.4166 17.293C14.7902 17.5903 15.3218 17.582 15.6859 17.2733L15.0392 16.5105ZM10.9681 11.9932C10.5359 11.6494 9.90682 11.721 9.56295 12.1531C9.21908 12.5853 9.29066 13.2144 9.72283 13.5583L10.9681 11.9932ZM18.9678 11.8687L14.3926 15.7478L15.6859 17.2733L20.2612 13.3942L18.9678 11.8687ZM15.6619 15.728L10.9681 11.9932L9.72283 13.5583L14.4166 17.293L15.6619 15.728ZM24.2544 13.8523C24.3345 18.9954 20.166 23.2551 14.913 23.3369L14.9441 25.3366C21.2743 25.2381 26.3518 20.0958 26.2542 13.8212L24.2544 13.8523ZM14.913 23.3369C9.65997 23.4186 5.36094 19.2908 5.28089 14.1476L3.28113 14.1788C3.37879 20.4534 8.61389 25.4352 14.9441 25.3366L14.913 23.3369ZM5.28089 14.1476C5.20084 9.00454 9.36931 4.74485 14.6223 4.66309L14.5912 2.66333C8.26098 2.76186 3.18347 7.90419 3.28113 14.1788L5.28089 14.1476ZM14.6223 4.66309C19.8753 4.58132 24.1744 8.70922 24.2544 13.8523L26.2542 13.8212C26.1565 7.54661 20.9214 2.5648 14.5912 2.66333L14.6223 4.66309Z" fill="black"/>
</svg>
