<svg width="39" height="36" viewBox="0 0 39 36" fill="none" xmlns="http://www.w3.org/2000/svg">
<g id="Heart">
<path id="Icon" fill-rule="evenodd" clip-rule="evenodd" d="M6.18535 9.30965C7.64806 7.95986 9.63166 7.20158 11.6999 7.20158C13.7682 7.20158 15.7518 7.95986 17.2145 9.30965L19.4999 11.4174L21.7853 9.30965C22.5049 8.62197 23.3656 8.07346 24.3172 7.69612C25.2688 7.31877 26.2923 7.12015 27.328 7.11184C28.3637 7.10354 29.3908 7.28571 30.3494 7.64773C31.308 8.00975 32.1789 8.54438 32.9112 9.2204C33.6436 9.89643 34.2228 10.7003 34.615 11.5852C35.0071 12.47 35.2045 13.4181 35.1955 14.3741C35.1865 15.3301 34.9713 16.2749 34.5625 17.1534C34.1537 18.0318 33.5595 18.8263 32.8145 19.4904L19.4999 31.7826L6.18535 19.4904C4.72307 18.1402 3.90161 16.3092 3.90161 14.4C3.90161 12.4909 4.72307 10.6598 6.18535 9.30965V9.30965Z" stroke="black" stroke-width="2" stroke-linejoin="round"/>
</g>
</svg>
