<svg width="29" height="28" viewBox="0 0 29 28" fill="none" xmlns="http://www.w3.org/2000/svg">
<g id="Magicpen">
<path id="icon" d="M21.7622 10.4883L18.1372 6.98825M4.22924 23.9166C5.23215 24.8849 6.85132 24.8849 7.85424 23.9166L23.5626 8.74992C24.5655 7.78159 24.5655 6.21825 23.5626 5.24992C22.5597 4.28159 20.9405 4.28159 19.9376 5.24992L4.22924 20.4166C3.22632 21.3849 3.22632 22.9483 4.22924 23.9166ZM10.2709 2.84659L12.0834 2.33325L11.5517 4.08325L12.0834 5.83325L10.2709 5.31992L8.45841 5.83325L8.99007 4.08325L8.45841 2.33325L10.2709 2.84659ZM5.43757 9.84658L7.25007 9.33325L6.7184 11.0833L7.25007 12.8333L5.43757 12.3199L3.62507 12.8333L4.15674 11.0833L3.62507 9.33325L5.43757 9.84658ZM23.5626 15.6799L25.3751 15.1666L24.8434 16.9166L25.3751 18.6666L23.5626 18.1533L21.7501 18.6666L22.2817 16.9166L21.7501 15.1666L23.5626 15.6799Z" stroke="#292D32" stroke-width="1.5" stroke-linecap="round" stroke-linejoin="round"/>
</g>
</svg>
