<svg width="38" height="39" viewBox="0 0 38 39" fill="none" xmlns="http://www.w3.org/2000/svg">
<g id="person">
<path id="icon" d="M19.0002 19.5C17.2585 19.5 15.7675 18.8635 14.5272 17.5906C13.287 16.3177 12.6668 14.7875 12.6668 13C12.6668 11.2125 13.287 9.68229 14.5272 8.40938C15.7675 7.13646 17.2585 6.5 19.0002 6.5C20.7418 6.5 22.2328 7.13646 23.4731 8.40938C24.7134 9.68229 25.3335 11.2125 25.3335 13C25.3335 14.7875 24.7134 16.3177 23.4731 17.5906C22.2328 18.8635 20.7418 19.5 19.0002 19.5ZM6.3335 32.5V27.95C6.3335 27.0292 6.5644 26.1828 7.0262 25.4109C7.48801 24.6391 8.10155 24.05 8.86683 23.6438C10.5029 22.8042 12.1654 22.1745 13.8543 21.7547C15.5432 21.3349 17.2585 21.125 19.0002 21.125C20.7418 21.125 22.4571 21.3349 24.146 21.7547C25.8349 22.1745 27.4974 22.8042 29.1335 23.6438C29.8988 24.05 30.5123 24.6391 30.9741 25.4109C31.4359 26.1828 31.6668 27.0292 31.6668 27.95V32.5H6.3335ZM9.50016 29.25H28.5002V27.95C28.5002 27.6521 28.4276 27.3813 28.2825 27.1375C28.1373 26.8937 27.946 26.7042 27.7085 26.5688C26.2835 25.8375 24.8453 25.2891 23.3939 24.9234C21.9425 24.5578 20.4779 24.375 19.0002 24.375C17.5224 24.375 16.0578 24.5578 14.6064 24.9234C13.155 25.2891 11.7168 25.8375 10.2918 26.5688C10.0543 26.7042 9.86301 26.8937 9.71787 27.1375C9.57273 27.3813 9.50016 27.6521 9.50016 27.95V29.25ZM19.0002 16.25C19.871 16.25 20.6165 15.9318 21.2366 15.2953C21.8568 14.6589 22.1668 13.8938 22.1668 13C22.1668 12.1062 21.8568 11.3411 21.2366 10.7047C20.6165 10.0682 19.871 9.75 19.0002 9.75C18.1293 9.75 17.3838 10.0682 16.7637 10.7047C16.1436 11.3411 15.8335 12.1062 15.8335 13C15.8335 13.8938 16.1436 14.6589 16.7637 15.2953C17.3838 15.9318 18.1293 16.25 19.0002 16.25Z" fill="#1D1B20"/>
</g>
</svg>
