<svg width="30" height="24" viewBox="0 0 30 24" fill="none" xmlns="http://www.w3.org/2000/svg">
<g clip-path="url(#clip0_222_886)">
<path d="M8.75 11L13.75 2C14.7446 2 15.6984 2.31607 16.4017 2.87868C17.1049 3.44129 17.5 4.20435 17.5 5V9H24.575C24.9374 8.99672 25.2963 9.0565 25.627 9.17522C25.9576 9.29393 26.252 9.46873 26.4898 9.68751C26.7276 9.90629 26.9031 10.1638 27.0042 10.4423C27.1052 10.7207 27.1294 11.0134 27.075 11.3L25.35 20.3C25.2596 20.7769 24.9568 21.2116 24.4974 21.524C24.038 21.8364 23.4529 22.0055 22.85 22H8.75M8.75 11V22M8.75 11H5C4.33696 11 3.70107 11.2107 3.23223 11.5858C2.76339 11.9609 2.5 12.4696 2.5 13V20C2.5 20.5304 2.76339 21.0391 3.23223 21.4142C3.70107 21.7893 4.33696 22 5 22H8.75" stroke="#1E1E1E" stroke-width="4" stroke-linecap="round" stroke-linejoin="round"/>
</g>
<defs>
<clipPath id="clip0_222_886">
<rect width="30" height="24" fill="white"/>
</clipPath>
</defs>
</svg>
